<mxfile host="app.diagrams.net" modified="2023-01-07T12:15:14.933Z" agent="5.0 (Windows NT 10.0; Win64; x64) AppleWebKit/537.36 (KHTML, like Gecko) Chrome/108.0.0.0 Safari/537.36" version="20.8.1" etag="aZHQz0kyhEZ1i7CwiWp0" type="github">
  <diagram id="Q9DsMATytysjsXMarvIr" name="Page-1">
    <mxGraphModel dx="1687" dy="832" grid="1" gridSize="10" guides="1" tooltips="1" connect="1" arrows="1" fold="1" page="1" pageScale="1" pageWidth="827" pageHeight="1169" math="0" shadow="0">
      <root>
        <mxCell id="0" />
        <mxCell id="1" parent="0" />
        <mxCell id="Umydz6lpazIZqTObDspl-2" value="UserController" style="swimlane;fontStyle=0;childLayout=stackLayout;horizontal=1;startSize=26;horizontalStack=0;resizeParent=1;resizeParentMax=0;resizeLast=0;collapsible=1;marginBottom=0;align=center;fontSize=14;" vertex="1" parent="1">
          <mxGeometry x="10" y="160" width="160" height="56" as="geometry">
            <mxRectangle x="50" y="220" width="60" height="30" as="alternateBounds" />
          </mxGeometry>
        </mxCell>
        <mxCell id="Umydz6lpazIZqTObDspl-3" value="/api/v1/user/recover" style="text;strokeColor=#d79b00;fillColor=#ffe6cc;spacingLeft=4;spacingRight=4;overflow=hidden;rotatable=0;points=[[0,0.5],[1,0.5]];portConstraint=eastwest;fontSize=12;" vertex="1" parent="Umydz6lpazIZqTObDspl-2">
          <mxGeometry y="26" width="160" height="30" as="geometry" />
        </mxCell>
        <mxCell id="Umydz6lpazIZqTObDspl-6" value="" style="strokeWidth=2;html=1;shape=mxgraph.flowchart.annotation_2;align=left;labelPosition=right;pointerEvents=1;" vertex="1" parent="1">
          <mxGeometry x="180" y="80" width="50" height="210" as="geometry" />
        </mxCell>
        <mxCell id="Umydz6lpazIZqTObDspl-67" style="edgeStyle=orthogonalEdgeStyle;rounded=0;orthogonalLoop=1;jettySize=auto;html=1;exitX=0.5;exitY=1;exitDx=0;exitDy=0;fillColor=#fff2cc;strokeColor=#d6b656;" edge="1" parent="1" source="Umydz6lpazIZqTObDspl-9" target="Umydz6lpazIZqTObDspl-18">
          <mxGeometry relative="1" as="geometry" />
        </mxCell>
        <mxCell id="Umydz6lpazIZqTObDspl-9" value="request" style="swimlane;fontStyle=0;childLayout=stackLayout;horizontal=1;startSize=26;fillColor=none;horizontalStack=0;resizeParent=1;resizeParentMax=0;resizeLast=0;collapsible=1;marginBottom=0;html=1;" vertex="1" parent="1">
          <mxGeometry x="240" y="30" width="200" height="52" as="geometry" />
        </mxCell>
        <mxCell id="Umydz6lpazIZqTObDspl-12" value="phoneNumber: {998919970607}" style="text;strokeColor=#d79b00;fillColor=#ffe6cc;align=left;verticalAlign=top;spacingLeft=4;spacingRight=4;overflow=hidden;rotatable=0;points=[[0,0.5],[1,0.5]];portConstraint=eastwest;whiteSpace=wrap;html=1;" vertex="1" parent="Umydz6lpazIZqTObDspl-9">
          <mxGeometry y="26" width="200" height="26" as="geometry" />
        </mxCell>
        <mxCell id="Umydz6lpazIZqTObDspl-13" value="responce" style="swimlane;fontStyle=0;childLayout=stackLayout;horizontal=1;startSize=26;fillColor=none;horizontalStack=0;resizeParent=1;resizeParentMax=0;resizeLast=0;collapsible=1;marginBottom=0;html=1;" vertex="1" parent="1">
          <mxGeometry x="240" y="240" width="200" height="104" as="geometry" />
        </mxCell>
        <mxCell id="Umydz6lpazIZqTObDspl-14" value="email: true" style="text;strokeColor=#d79b00;fillColor=#ffe6cc;align=left;verticalAlign=top;spacingLeft=4;spacingRight=4;overflow=hidden;rotatable=0;points=[[0,0.5],[1,0.5]];portConstraint=eastwest;whiteSpace=wrap;html=1;" vertex="1" parent="Umydz6lpazIZqTObDspl-13">
          <mxGeometry y="26" width="200" height="26" as="geometry" />
        </mxCell>
        <mxCell id="Umydz6lpazIZqTObDspl-15" value="myId: true" style="text;strokeColor=#d79b00;fillColor=#ffe6cc;align=left;verticalAlign=top;spacingLeft=4;spacingRight=4;overflow=hidden;rotatable=0;points=[[0,0.5],[1,0.5]];portConstraint=eastwest;whiteSpace=wrap;html=1;" vertex="1" parent="Umydz6lpazIZqTObDspl-13">
          <mxGeometry y="52" width="200" height="26" as="geometry" />
        </mxCell>
        <mxCell id="Umydz6lpazIZqTObDspl-16" value="secretWord: true" style="text;strokeColor=#d79b00;fillColor=#ffe6cc;align=left;verticalAlign=top;spacingLeft=4;spacingRight=4;overflow=hidden;rotatable=0;points=[[0,0.5],[1,0.5]];portConstraint=eastwest;whiteSpace=wrap;html=1;" vertex="1" parent="Umydz6lpazIZqTObDspl-13">
          <mxGeometry y="78" width="200" height="26" as="geometry" />
        </mxCell>
        <mxCell id="Umydz6lpazIZqTObDspl-18" value="We can find:&lt;br&gt;&lt;br&gt;1. Mail table&lt;br&gt;2.Users{Client, Non Client}&lt;br&gt;3.secretWord table" style="shape=callout;whiteSpace=wrap;html=1;perimeter=calloutPerimeter;" vertex="1" parent="1">
          <mxGeometry x="500" y="70" width="190" height="124" as="geometry" />
        </mxCell>
        <mxCell id="Umydz6lpazIZqTObDspl-21" value="" style="strokeWidth=2;html=1;shape=mxgraph.flowchart.annotation_2;align=left;labelPosition=right;pointerEvents=1;direction=south;" vertex="1" parent="1">
          <mxGeometry x="140" y="344" width="440" height="110" as="geometry" />
        </mxCell>
        <mxCell id="Umydz6lpazIZqTObDspl-22" value="" style="line;strokeWidth=2;direction=south;html=1;" vertex="1" parent="1">
          <mxGeometry x="355" y="400" width="10" height="60" as="geometry" />
        </mxCell>
        <mxCell id="Umydz6lpazIZqTObDspl-24" value="PasswordController" style="swimlane;fontStyle=0;childLayout=stackLayout;horizontal=1;startSize=26;horizontalStack=0;resizeParent=1;resizeParentMax=0;resizeLast=0;collapsible=1;marginBottom=0;align=center;fontSize=14;" vertex="1" parent="1">
          <mxGeometry x="50" y="454" width="160" height="56" as="geometry">
            <mxRectangle x="50" y="220" width="60" height="30" as="alternateBounds" />
          </mxGeometry>
        </mxCell>
        <mxCell id="Umydz6lpazIZqTObDspl-25" value="/api/v1/recover" style="text;strokeColor=#d79b00;fillColor=#ffe6cc;spacingLeft=4;spacingRight=4;overflow=hidden;rotatable=0;points=[[0,0.5],[1,0.5]];portConstraint=eastwest;fontSize=12;" vertex="1" parent="Umydz6lpazIZqTObDspl-24">
          <mxGeometry y="26" width="160" height="30" as="geometry" />
        </mxCell>
        <mxCell id="Umydz6lpazIZqTObDspl-26" value="PasswordController" style="swimlane;fontStyle=0;childLayout=stackLayout;horizontal=1;startSize=26;horizontalStack=0;resizeParent=1;resizeParentMax=0;resizeLast=0;collapsible=1;marginBottom=0;align=center;fontSize=14;" vertex="1" parent="1">
          <mxGeometry x="270" y="454" width="160" height="56" as="geometry">
            <mxRectangle x="50" y="220" width="60" height="30" as="alternateBounds" />
          </mxGeometry>
        </mxCell>
        <mxCell id="Umydz6lpazIZqTObDspl-27" value="/api/v1/recover" style="text;strokeColor=#d79b00;fillColor=#ffe6cc;spacingLeft=4;spacingRight=4;overflow=hidden;rotatable=0;points=[[0,0.5],[1,0.5]];portConstraint=eastwest;fontSize=12;" vertex="1" parent="Umydz6lpazIZqTObDspl-26">
          <mxGeometry y="26" width="160" height="30" as="geometry" />
        </mxCell>
        <mxCell id="Umydz6lpazIZqTObDspl-28" value="PasswordController" style="swimlane;fontStyle=0;childLayout=stackLayout;horizontal=1;startSize=26;horizontalStack=0;resizeParent=1;resizeParentMax=0;resizeLast=0;collapsible=1;marginBottom=0;align=center;fontSize=14;" vertex="1" parent="1">
          <mxGeometry x="490" y="454" width="160" height="56" as="geometry">
            <mxRectangle x="50" y="220" width="60" height="30" as="alternateBounds" />
          </mxGeometry>
        </mxCell>
        <mxCell id="Umydz6lpazIZqTObDspl-29" value="/api/v1/recover" style="text;strokeColor=#d79b00;fillColor=#ffe6cc;spacingLeft=4;spacingRight=4;overflow=hidden;rotatable=0;points=[[0,0.5],[1,0.5]];portConstraint=eastwest;fontSize=12;" vertex="1" parent="Umydz6lpazIZqTObDspl-28">
          <mxGeometry y="26" width="160" height="30" as="geometry" />
        </mxCell>
        <mxCell id="Umydz6lpazIZqTObDspl-30" value="" style="shape=curlyBracket;whiteSpace=wrap;html=1;rounded=1;flipH=1;labelPosition=right;verticalLabelPosition=middle;align=left;verticalAlign=middle;direction=north;" vertex="1" parent="1">
          <mxGeometry x="30" y="520" width="640" height="120" as="geometry" />
        </mxCell>
        <mxCell id="Umydz6lpazIZqTObDspl-66" style="edgeStyle=orthogonalEdgeStyle;rounded=0;orthogonalLoop=1;jettySize=auto;html=1;exitX=0.5;exitY=1;exitDx=0;exitDy=0;entryX=0;entryY=0;entryDx=90;entryDy=120;entryPerimeter=0;fillColor=#fff2cc;strokeColor=#d6b656;" edge="1" parent="1" source="Umydz6lpazIZqTObDspl-36" target="Umydz6lpazIZqTObDspl-65">
          <mxGeometry relative="1" as="geometry" />
        </mxCell>
        <mxCell id="Umydz6lpazIZqTObDspl-36" value="request" style="swimlane;fontStyle=0;childLayout=stackLayout;horizontal=1;startSize=26;fillColor=none;horizontalStack=0;resizeParent=1;resizeParentMax=0;resizeLast=0;collapsible=1;marginBottom=0;html=1;" vertex="1" parent="1">
          <mxGeometry x="365" y="670" width="230" height="52" as="geometry" />
        </mxCell>
        <mxCell id="Umydz6lpazIZqTObDspl-37" value="recoverType{email, myId, secredWord}" style="text;strokeColor=#d79b00;fillColor=#ffe6cc;align=left;verticalAlign=top;spacingLeft=4;spacingRight=4;overflow=hidden;rotatable=0;points=[[0,0.5],[1,0.5]];portConstraint=eastwest;whiteSpace=wrap;html=1;" vertex="1" parent="Umydz6lpazIZqTObDspl-36">
          <mxGeometry y="26" width="230" height="26" as="geometry" />
        </mxCell>
        <mxCell id="Umydz6lpazIZqTObDspl-50" style="edgeStyle=orthogonalEdgeStyle;rounded=0;orthogonalLoop=1;jettySize=auto;html=1;exitX=0.5;exitY=1;exitDx=0;exitDy=0;" edge="1" parent="1" source="Umydz6lpazIZqTObDspl-38" target="Umydz6lpazIZqTObDspl-48">
          <mxGeometry relative="1" as="geometry" />
        </mxCell>
        <mxCell id="Umydz6lpazIZqTObDspl-38" value="responce" style="swimlane;fontStyle=0;childLayout=stackLayout;horizontal=1;startSize=26;fillColor=none;horizontalStack=0;resizeParent=1;resizeParentMax=0;resizeLast=0;collapsible=1;marginBottom=0;html=1;" vertex="1" parent="1">
          <mxGeometry x="130" y="670" width="200" height="52" as="geometry" />
        </mxCell>
        <mxCell id="Umydz6lpazIZqTObDspl-41" value="success: true, false" style="text;strokeColor=#d79b00;fillColor=#ffe6cc;align=left;verticalAlign=top;spacingLeft=4;spacingRight=4;overflow=hidden;rotatable=0;points=[[0,0.5],[1,0.5]];portConstraint=eastwest;whiteSpace=wrap;html=1;" vertex="1" parent="Umydz6lpazIZqTObDspl-38">
          <mxGeometry y="26" width="200" height="26" as="geometry" />
        </mxCell>
        <mxCell id="Umydz6lpazIZqTObDspl-42" value="" style="strokeWidth=2;html=1;shape=mxgraph.flowchart.annotation_2;align=left;labelPosition=right;pointerEvents=1;direction=south;" vertex="1" parent="1">
          <mxGeometry x="245" y="620" width="210" height="50" as="geometry" />
        </mxCell>
        <mxCell id="Umydz6lpazIZqTObDspl-43" value="" style="strokeWidth=2;html=1;shape=mxgraph.flowchart.annotation_2;align=left;labelPosition=right;pointerEvents=1;direction=south;" vertex="1" parent="1">
          <mxGeometry x="190" y="852" width="300" height="118" as="geometry" />
        </mxCell>
        <mxCell id="Umydz6lpazIZqTObDspl-55" style="edgeStyle=orthogonalEdgeStyle;rounded=0;orthogonalLoop=1;jettySize=auto;html=1;exitX=0.5;exitY=1;exitDx=0;exitDy=0;entryX=0.5;entryY=0;entryDx=0;entryDy=0;" edge="1" parent="1" source="Umydz6lpazIZqTObDspl-44" target="Umydz6lpazIZqTObDspl-53">
          <mxGeometry relative="1" as="geometry" />
        </mxCell>
        <mxCell id="Umydz6lpazIZqTObDspl-44" value="responce" style="swimlane;fontStyle=0;childLayout=stackLayout;horizontal=1;startSize=26;fillColor=none;horizontalStack=0;resizeParent=1;resizeParentMax=0;resizeLast=0;collapsible=1;marginBottom=0;html=1;" vertex="1" parent="1">
          <mxGeometry x="390" y="970" width="200" height="70" as="geometry" />
        </mxCell>
        <mxCell id="Umydz6lpazIZqTObDspl-45" value="success: true, false" style="text;strokeColor=#d79b00;fillColor=#ffe6cc;align=left;verticalAlign=top;spacingLeft=4;spacingRight=4;overflow=hidden;rotatable=0;points=[[0,0.5],[1,0.5]];portConstraint=eastwest;whiteSpace=wrap;html=1;" vertex="1" parent="Umydz6lpazIZqTObDspl-44">
          <mxGeometry y="26" width="200" height="44" as="geometry" />
        </mxCell>
        <mxCell id="Umydz6lpazIZqTObDspl-70" style="edgeStyle=orthogonalEdgeStyle;rounded=0;orthogonalLoop=1;jettySize=auto;html=1;exitX=0.75;exitY=0;exitDx=0;exitDy=0;entryX=0;entryY=0;entryDx=0;entryDy=45;entryPerimeter=0;fillColor=#fff2cc;strokeColor=#d6b656;" edge="1" parent="1" source="Umydz6lpazIZqTObDspl-46" target="Umydz6lpazIZqTObDspl-68">
          <mxGeometry relative="1" as="geometry" />
        </mxCell>
        <mxCell id="Umydz6lpazIZqTObDspl-46" value="request" style="swimlane;fontStyle=0;childLayout=stackLayout;horizontal=1;startSize=26;fillColor=none;horizontalStack=0;resizeParent=1;resizeParentMax=0;resizeLast=0;collapsible=1;marginBottom=0;html=1;" vertex="1" parent="1">
          <mxGeometry x="50" y="970" width="230" height="60" as="geometry" />
        </mxCell>
        <mxCell id="Umydz6lpazIZqTObDspl-47" value="recoverType{email, myId, secredWord}&lt;br&gt;" style="text;strokeColor=#d79b00;fillColor=#ffe6cc;align=left;verticalAlign=top;spacingLeft=4;spacingRight=4;overflow=hidden;rotatable=0;points=[[0,0.5],[1,0.5]];portConstraint=eastwest;whiteSpace=wrap;html=1;" vertex="1" parent="Umydz6lpazIZqTObDspl-46">
          <mxGeometry y="26" width="230" height="34" as="geometry" />
        </mxCell>
        <mxCell id="Umydz6lpazIZqTObDspl-48" value="PasswordController" style="swimlane;fontStyle=0;childLayout=stackLayout;horizontal=1;startSize=26;horizontalStack=0;resizeParent=1;resizeParentMax=0;resizeLast=0;collapsible=1;marginBottom=0;align=center;fontSize=14;" vertex="1" parent="1">
          <mxGeometry x="254" y="796" width="160" height="56" as="geometry">
            <mxRectangle x="50" y="220" width="60" height="30" as="alternateBounds" />
          </mxGeometry>
        </mxCell>
        <mxCell id="Umydz6lpazIZqTObDspl-49" value="/api/v1/recover/verify" style="text;strokeColor=#d79b00;fillColor=#ffe6cc;spacingLeft=4;spacingRight=4;overflow=hidden;rotatable=0;points=[[0,0.5],[1,0.5]];portConstraint=eastwest;fontSize=12;" vertex="1" parent="Umydz6lpazIZqTObDspl-48">
          <mxGeometry y="26" width="160" height="30" as="geometry" />
        </mxCell>
        <mxCell id="Umydz6lpazIZqTObDspl-51" value="recoverField: List&amp;lt;Field&amp;gt; fields;" style="text;strokeColor=#d79b00;fillColor=#ffe6cc;align=left;verticalAlign=top;spacingLeft=4;spacingRight=4;overflow=hidden;rotatable=0;points=[[0,0.5],[1,0.5]];portConstraint=eastwest;whiteSpace=wrap;html=1;" vertex="1" parent="1">
          <mxGeometry x="50" y="1022" width="230" height="28" as="geometry" />
        </mxCell>
        <mxCell id="Umydz6lpazIZqTObDspl-53" value="&lt;span style=&quot;font-size: 14px;&quot;&gt;PasswordController&lt;/span&gt;" style="swimlane;fontStyle=0;childLayout=stackLayout;horizontal=1;startSize=26;fillColor=none;horizontalStack=0;resizeParent=1;resizeParentMax=0;resizeLast=0;collapsible=1;marginBottom=0;html=1;" vertex="1" parent="1">
          <mxGeometry x="280" y="1180" width="200" height="70" as="geometry" />
        </mxCell>
        <mxCell id="Umydz6lpazIZqTObDspl-54" value="&lt;span style=&quot;&quot;&gt;/api/v1/recover/password&lt;/span&gt;" style="text;strokeColor=#d79b00;fillColor=#ffe6cc;align=left;verticalAlign=top;spacingLeft=4;spacingRight=4;overflow=hidden;rotatable=0;points=[[0,0.5],[1,0.5]];portConstraint=eastwest;whiteSpace=wrap;html=1;" vertex="1" parent="Umydz6lpazIZqTObDspl-53">
          <mxGeometry y="26" width="200" height="44" as="geometry" />
        </mxCell>
        <mxCell id="Umydz6lpazIZqTObDspl-56" value="" style="strokeWidth=2;html=1;shape=mxgraph.flowchart.annotation_2;align=left;labelPosition=right;pointerEvents=1;direction=south;" vertex="1" parent="1">
          <mxGeometry x="210" y="1250" width="300" height="118" as="geometry" />
        </mxCell>
        <mxCell id="Umydz6lpazIZqTObDspl-72" style="edgeStyle=orthogonalEdgeStyle;rounded=0;orthogonalLoop=1;jettySize=auto;html=1;exitX=0.75;exitY=0;exitDx=0;exitDy=0;entryX=0;entryY=0;entryDx=0;entryDy=45;entryPerimeter=0;fillColor=#fff2cc;strokeColor=#d6b656;" edge="1" parent="1" source="Umydz6lpazIZqTObDspl-57" target="Umydz6lpazIZqTObDspl-71">
          <mxGeometry relative="1" as="geometry" />
        </mxCell>
        <mxCell id="Umydz6lpazIZqTObDspl-57" value="request" style="swimlane;fontStyle=0;childLayout=stackLayout;horizontal=1;startSize=26;fillColor=none;horizontalStack=0;resizeParent=1;resizeParentMax=0;resizeLast=0;collapsible=1;marginBottom=0;html=1;" vertex="1" parent="1">
          <mxGeometry x="90" y="1368" width="230" height="60" as="geometry" />
        </mxCell>
        <mxCell id="Umydz6lpazIZqTObDspl-58" value="password: &quot;asdasd&quot;" style="text;strokeColor=#d79b00;fillColor=#ffe6cc;align=left;verticalAlign=top;spacingLeft=4;spacingRight=4;overflow=hidden;rotatable=0;points=[[0,0.5],[1,0.5]];portConstraint=eastwest;whiteSpace=wrap;html=1;" vertex="1" parent="Umydz6lpazIZqTObDspl-57">
          <mxGeometry y="26" width="230" height="34" as="geometry" />
        </mxCell>
        <mxCell id="Umydz6lpazIZqTObDspl-59" value="repeatPassword: &quot;asdasd&quot;" style="text;strokeColor=#d79b00;fillColor=#ffe6cc;align=left;verticalAlign=top;spacingLeft=4;spacingRight=4;overflow=hidden;rotatable=0;points=[[0,0.5],[1,0.5]];portConstraint=eastwest;whiteSpace=wrap;html=1;" vertex="1" parent="1">
          <mxGeometry x="90" y="1420" width="230" height="28" as="geometry" />
        </mxCell>
        <mxCell id="Umydz6lpazIZqTObDspl-60" value="responce" style="swimlane;fontStyle=0;childLayout=stackLayout;horizontal=1;startSize=26;fillColor=none;horizontalStack=0;resizeParent=1;resizeParentMax=0;resizeLast=0;collapsible=1;marginBottom=0;html=1;" vertex="1" parent="1">
          <mxGeometry x="410" y="1368" width="220" height="70" as="geometry" />
        </mxCell>
        <mxCell id="Umydz6lpazIZqTObDspl-61" value="success: true, false" style="text;strokeColor=#d79b00;fillColor=#ffe6cc;align=left;verticalAlign=top;spacingLeft=4;spacingRight=4;overflow=hidden;rotatable=0;points=[[0,0.5],[1,0.5]];portConstraint=eastwest;whiteSpace=wrap;html=1;" vertex="1" parent="Umydz6lpazIZqTObDspl-60">
          <mxGeometry y="26" width="220" height="44" as="geometry" />
        </mxCell>
        <mxCell id="Umydz6lpazIZqTObDspl-62" value="email" style="text;html=1;align=center;verticalAlign=middle;resizable=0;points=[];autosize=1;strokeColor=none;fillColor=none;" vertex="1" parent="1">
          <mxGeometry x="65" y="425" width="50" height="30" as="geometry" />
        </mxCell>
        <mxCell id="Umydz6lpazIZqTObDspl-63" value="myId&lt;span style=&quot;color: rgba(0, 0, 0, 0); font-family: monospace; font-size: 0px; text-align: start;&quot;&gt;%3CmxGraphModel%3E%3Croot%3E%3CmxCell%20id%3D%220%22%2F%3E%3CmxCell%20id%3D%221%22%20parent%3D%220%22%2F%3E%3CmxCell%20id%3D%222%22%20value%3D%22email%22%20style%3D%22text%3Bhtml%3D1%3Balign%3Dcenter%3BverticalAlign%3Dmiddle%3Bresizable%3D0%3Bpoints%3D%5B%5D%3Bautosize%3D1%3BstrokeColor%3Dnone%3BfillColor%3Dnone%3B%22%20vertex%3D%221%22%20parent%3D%221%22%3E%3CmxGeometry%20x%3D%2265%22%20y%3D%22425%22%20width%3D%2250%22%20height%3D%2230%22%20as%3D%22geometry%22%2F%3E%3C%2FmxCell%3E%3C%2Froot%3E%3C%2FmxGraphModel%3E&lt;/span&gt;" style="text;html=1;align=center;verticalAlign=middle;resizable=0;points=[];autosize=1;strokeColor=none;fillColor=none;" vertex="1" parent="1">
          <mxGeometry x="300" y="425" width="50" height="30" as="geometry" />
        </mxCell>
        <mxCell id="Umydz6lpazIZqTObDspl-64" value="secretWord" style="text;html=1;align=center;verticalAlign=middle;resizable=0;points=[];autosize=1;strokeColor=none;fillColor=none;" vertex="1" parent="1">
          <mxGeometry x="505" y="425" width="80" height="30" as="geometry" />
        </mxCell>
        <mxCell id="Umydz6lpazIZqTObDspl-65" value="&lt;span style=&quot;background-color: rgb(255, 255, 255);&quot;&gt;We will send an inspection&lt;/span&gt;" style="shape=callout;whiteSpace=wrap;html=1;perimeter=calloutPerimeter;labelBackgroundColor=#2A262B;" vertex="1" parent="1">
          <mxGeometry x="620" y="602" width="180" height="120" as="geometry" />
        </mxCell>
        <mxCell id="Umydz6lpazIZqTObDspl-68" value="&lt;span style=&quot;background-color: rgb(255, 255, 255);&quot;&gt;We will check!&lt;/span&gt;" style="shape=callout;whiteSpace=wrap;html=1;perimeter=calloutPerimeter;labelBackgroundColor=#2A262B;" vertex="1" parent="1">
          <mxGeometry x="630" y="830" width="180" height="120" as="geometry" />
        </mxCell>
        <mxCell id="Umydz6lpazIZqTObDspl-71" value="&lt;span style=&quot;background-color: rgb(255, 255, 255);&quot;&gt;set new password&lt;/span&gt;" style="shape=callout;whiteSpace=wrap;html=1;perimeter=calloutPerimeter;labelBackgroundColor=#2A262B;" vertex="1" parent="1">
          <mxGeometry x="640" y="1220" width="180" height="120" as="geometry" />
        </mxCell>
        <mxCell id="Umydz6lpazIZqTObDspl-73" value="" style="strokeWidth=2;html=1;shape=mxgraph.flowchart.annotation_2;align=left;labelPosition=right;pointerEvents=1;" vertex="1" parent="1">
          <mxGeometry x="180" y="80" width="50" height="210" as="geometry" />
        </mxCell>
        <mxCell id="Umydz6lpazIZqTObDspl-74" style="edgeStyle=orthogonalEdgeStyle;rounded=0;orthogonalLoop=1;jettySize=auto;html=1;exitX=0.5;exitY=1;exitDx=0;exitDy=0;fillColor=#fff2cc;strokeColor=#d6b656;" edge="1" parent="1" source="Umydz6lpazIZqTObDspl-75" target="Umydz6lpazIZqTObDspl-81">
          <mxGeometry relative="1" as="geometry" />
        </mxCell>
        <mxCell id="Umydz6lpazIZqTObDspl-75" value="request" style="swimlane;fontStyle=0;childLayout=stackLayout;horizontal=1;startSize=26;fillColor=none;horizontalStack=0;resizeParent=1;resizeParentMax=0;resizeLast=0;collapsible=1;marginBottom=0;html=1;" vertex="1" parent="1">
          <mxGeometry x="240" y="30" width="200" height="52" as="geometry" />
        </mxCell>
        <mxCell id="Umydz6lpazIZqTObDspl-76" value="phoneNumber: {998919970607}" style="text;strokeColor=#d79b00;fillColor=#ffe6cc;align=left;verticalAlign=top;spacingLeft=4;spacingRight=4;overflow=hidden;rotatable=0;points=[[0,0.5],[1,0.5]];portConstraint=eastwest;whiteSpace=wrap;html=1;" vertex="1" parent="Umydz6lpazIZqTObDspl-75">
          <mxGeometry y="26" width="200" height="26" as="geometry" />
        </mxCell>
        <mxCell id="Umydz6lpazIZqTObDspl-77" value="responce" style="swimlane;fontStyle=0;childLayout=stackLayout;horizontal=1;startSize=26;fillColor=none;horizontalStack=0;resizeParent=1;resizeParentMax=0;resizeLast=0;collapsible=1;marginBottom=0;html=1;" vertex="1" parent="1">
          <mxGeometry x="240" y="240" width="200" height="104" as="geometry" />
        </mxCell>
        <mxCell id="Umydz6lpazIZqTObDspl-78" value="email: true" style="text;strokeColor=#d79b00;fillColor=#ffe6cc;align=left;verticalAlign=top;spacingLeft=4;spacingRight=4;overflow=hidden;rotatable=0;points=[[0,0.5],[1,0.5]];portConstraint=eastwest;whiteSpace=wrap;html=1;" vertex="1" parent="Umydz6lpazIZqTObDspl-77">
          <mxGeometry y="26" width="200" height="26" as="geometry" />
        </mxCell>
        <mxCell id="Umydz6lpazIZqTObDspl-79" value="myId: true" style="text;strokeColor=#d79b00;fillColor=#ffe6cc;align=left;verticalAlign=top;spacingLeft=4;spacingRight=4;overflow=hidden;rotatable=0;points=[[0,0.5],[1,0.5]];portConstraint=eastwest;whiteSpace=wrap;html=1;" vertex="1" parent="Umydz6lpazIZqTObDspl-77">
          <mxGeometry y="52" width="200" height="26" as="geometry" />
        </mxCell>
        <mxCell id="Umydz6lpazIZqTObDspl-80" value="secretWord: true" style="text;strokeColor=#d79b00;fillColor=#ffe6cc;align=left;verticalAlign=top;spacingLeft=4;spacingRight=4;overflow=hidden;rotatable=0;points=[[0,0.5],[1,0.5]];portConstraint=eastwest;whiteSpace=wrap;html=1;" vertex="1" parent="Umydz6lpazIZqTObDspl-77">
          <mxGeometry y="78" width="200" height="26" as="geometry" />
        </mxCell>
        <mxCell id="Umydz6lpazIZqTObDspl-81" value="We can find:&lt;br&gt;&lt;br&gt;1. Mail table&lt;br&gt;2.Users{Client, Non Client}&lt;br&gt;3.secretWord table" style="shape=callout;whiteSpace=wrap;html=1;perimeter=calloutPerimeter;" vertex="1" parent="1">
          <mxGeometry x="500" y="70" width="190" height="124" as="geometry" />
        </mxCell>
        <mxCell id="Umydz6lpazIZqTObDspl-82" value="" style="strokeWidth=2;html=1;shape=mxgraph.flowchart.annotation_2;align=left;labelPosition=right;pointerEvents=1;direction=south;" vertex="1" parent="1">
          <mxGeometry x="140" y="344" width="440" height="110" as="geometry" />
        </mxCell>
        <mxCell id="Umydz6lpazIZqTObDspl-83" value="" style="line;strokeWidth=2;direction=south;html=1;" vertex="1" parent="1">
          <mxGeometry x="355" y="400" width="10" height="60" as="geometry" />
        </mxCell>
        <mxCell id="Umydz6lpazIZqTObDspl-84" value="PasswordController" style="swimlane;fontStyle=0;childLayout=stackLayout;horizontal=1;startSize=26;horizontalStack=0;resizeParent=1;resizeParentMax=0;resizeLast=0;collapsible=1;marginBottom=0;align=center;fontSize=14;" vertex="1" parent="1">
          <mxGeometry x="50" y="454" width="160" height="56" as="geometry">
            <mxRectangle x="50" y="220" width="60" height="30" as="alternateBounds" />
          </mxGeometry>
        </mxCell>
        <mxCell id="Umydz6lpazIZqTObDspl-85" value="/api/v1/password/forgot" style="text;strokeColor=#d79b00;fillColor=#ffe6cc;spacingLeft=4;spacingRight=4;overflow=hidden;rotatable=0;points=[[0,0.5],[1,0.5]];portConstraint=eastwest;fontSize=12;" vertex="1" parent="Umydz6lpazIZqTObDspl-84">
          <mxGeometry y="26" width="160" height="30" as="geometry" />
        </mxCell>
        <mxCell id="Umydz6lpazIZqTObDspl-86" value="PasswordController" style="swimlane;fontStyle=0;childLayout=stackLayout;horizontal=1;startSize=26;horizontalStack=0;resizeParent=1;resizeParentMax=0;resizeLast=0;collapsible=1;marginBottom=0;align=center;fontSize=14;" vertex="1" parent="1">
          <mxGeometry x="270" y="454" width="160" height="56" as="geometry">
            <mxRectangle x="50" y="220" width="60" height="30" as="alternateBounds" />
          </mxGeometry>
        </mxCell>
        <mxCell id="Umydz6lpazIZqTObDspl-87" value="/api/v1/password/forgot" style="text;strokeColor=#d79b00;fillColor=#ffe6cc;spacingLeft=4;spacingRight=4;overflow=hidden;rotatable=0;points=[[0,0.5],[1,0.5]];portConstraint=eastwest;fontSize=12;" vertex="1" parent="Umydz6lpazIZqTObDspl-86">
          <mxGeometry y="26" width="160" height="30" as="geometry" />
        </mxCell>
        <mxCell id="Umydz6lpazIZqTObDspl-88" value="PasswordController" style="swimlane;fontStyle=0;childLayout=stackLayout;horizontal=1;startSize=26;horizontalStack=0;resizeParent=1;resizeParentMax=0;resizeLast=0;collapsible=1;marginBottom=0;align=center;fontSize=14;" vertex="1" parent="1">
          <mxGeometry x="490" y="454" width="160" height="56" as="geometry">
            <mxRectangle x="50" y="220" width="60" height="30" as="alternateBounds" />
          </mxGeometry>
        </mxCell>
        <mxCell id="Umydz6lpazIZqTObDspl-89" value="/api/v1/password/forgot" style="text;strokeColor=#d79b00;fillColor=#ffe6cc;spacingLeft=4;spacingRight=4;overflow=hidden;rotatable=0;points=[[0,0.5],[1,0.5]];portConstraint=eastwest;fontSize=12;" vertex="1" parent="Umydz6lpazIZqTObDspl-88">
          <mxGeometry y="26" width="160" height="30" as="geometry" />
        </mxCell>
        <mxCell id="Umydz6lpazIZqTObDspl-90" value="" style="shape=curlyBracket;whiteSpace=wrap;html=1;rounded=1;flipH=1;labelPosition=right;verticalLabelPosition=middle;align=left;verticalAlign=middle;direction=north;" vertex="1" parent="1">
          <mxGeometry x="30" y="520" width="640" height="120" as="geometry" />
        </mxCell>
        <mxCell id="Umydz6lpazIZqTObDspl-91" style="edgeStyle=orthogonalEdgeStyle;rounded=0;orthogonalLoop=1;jettySize=auto;html=1;exitX=0.5;exitY=1;exitDx=0;exitDy=0;entryX=0;entryY=0;entryDx=90;entryDy=120;entryPerimeter=0;fillColor=#fff2cc;strokeColor=#d6b656;" edge="1" parent="1" source="Umydz6lpazIZqTObDspl-92" target="Umydz6lpazIZqTObDspl-120">
          <mxGeometry relative="1" as="geometry" />
        </mxCell>
        <mxCell id="Umydz6lpazIZqTObDspl-92" value="request" style="swimlane;fontStyle=0;childLayout=stackLayout;horizontal=1;startSize=26;fillColor=none;horizontalStack=0;resizeParent=1;resizeParentMax=0;resizeLast=0;collapsible=1;marginBottom=0;html=1;" vertex="1" parent="1">
          <mxGeometry x="365" y="670" width="230" height="52" as="geometry" />
        </mxCell>
        <mxCell id="Umydz6lpazIZqTObDspl-93" value="recoverType{email, myId, secredWord}" style="text;strokeColor=#d79b00;fillColor=#ffe6cc;align=left;verticalAlign=top;spacingLeft=4;spacingRight=4;overflow=hidden;rotatable=0;points=[[0,0.5],[1,0.5]];portConstraint=eastwest;whiteSpace=wrap;html=1;" vertex="1" parent="Umydz6lpazIZqTObDspl-92">
          <mxGeometry y="26" width="230" height="26" as="geometry" />
        </mxCell>
        <mxCell id="Umydz6lpazIZqTObDspl-94" style="edgeStyle=orthogonalEdgeStyle;rounded=0;orthogonalLoop=1;jettySize=auto;html=1;exitX=0.5;exitY=1;exitDx=0;exitDy=0;" edge="1" parent="1" source="Umydz6lpazIZqTObDspl-95" target="Umydz6lpazIZqTObDspl-105">
          <mxGeometry relative="1" as="geometry" />
        </mxCell>
        <mxCell id="Umydz6lpazIZqTObDspl-95" value="responce" style="swimlane;fontStyle=0;childLayout=stackLayout;horizontal=1;startSize=26;fillColor=none;horizontalStack=0;resizeParent=1;resizeParentMax=0;resizeLast=0;collapsible=1;marginBottom=0;html=1;" vertex="1" parent="1">
          <mxGeometry x="130" y="670" width="200" height="70" as="geometry" />
        </mxCell>
        <mxCell id="Umydz6lpazIZqTObDspl-96" value="success: true, false&lt;br&gt;message: secretWord" style="text;strokeColor=#d79b00;fillColor=#ffe6cc;align=left;verticalAlign=top;spacingLeft=4;spacingRight=4;overflow=hidden;rotatable=0;points=[[0,0.5],[1,0.5]];portConstraint=eastwest;whiteSpace=wrap;html=1;" vertex="1" parent="Umydz6lpazIZqTObDspl-95">
          <mxGeometry y="26" width="200" height="44" as="geometry" />
        </mxCell>
        <mxCell id="Umydz6lpazIZqTObDspl-97" value="" style="strokeWidth=2;html=1;shape=mxgraph.flowchart.annotation_2;align=left;labelPosition=right;pointerEvents=1;direction=south;" vertex="1" parent="1">
          <mxGeometry x="245" y="620" width="210" height="50" as="geometry" />
        </mxCell>
        <mxCell id="Umydz6lpazIZqTObDspl-98" value="" style="strokeWidth=2;html=1;shape=mxgraph.flowchart.annotation_2;align=left;labelPosition=right;pointerEvents=1;direction=south;" vertex="1" parent="1">
          <mxGeometry x="190" y="852" width="300" height="118" as="geometry" />
        </mxCell>
        <mxCell id="Umydz6lpazIZqTObDspl-99" style="edgeStyle=orthogonalEdgeStyle;rounded=0;orthogonalLoop=1;jettySize=auto;html=1;exitX=0.5;exitY=1;exitDx=0;exitDy=0;entryX=0.5;entryY=0;entryDx=0;entryDy=0;" edge="1" parent="1" source="Umydz6lpazIZqTObDspl-100" target="Umydz6lpazIZqTObDspl-108">
          <mxGeometry relative="1" as="geometry" />
        </mxCell>
        <mxCell id="Umydz6lpazIZqTObDspl-100" value="responce" style="swimlane;fontStyle=0;childLayout=stackLayout;horizontal=1;startSize=26;fillColor=none;horizontalStack=0;resizeParent=1;resizeParentMax=0;resizeLast=0;collapsible=1;marginBottom=0;html=1;" vertex="1" parent="1">
          <mxGeometry x="390" y="970" width="200" height="70" as="geometry" />
        </mxCell>
        <mxCell id="Umydz6lpazIZqTObDspl-101" value="success: true, false&lt;br&gt;token:&quot;asjdlajsdlajsdlkajsd&quot;" style="text;strokeColor=#d79b00;fillColor=#ffe6cc;align=left;verticalAlign=top;spacingLeft=4;spacingRight=4;overflow=hidden;rotatable=0;points=[[0,0.5],[1,0.5]];portConstraint=eastwest;whiteSpace=wrap;html=1;" vertex="1" parent="Umydz6lpazIZqTObDspl-100">
          <mxGeometry y="26" width="200" height="44" as="geometry" />
        </mxCell>
        <mxCell id="Umydz6lpazIZqTObDspl-102" style="edgeStyle=orthogonalEdgeStyle;rounded=0;orthogonalLoop=1;jettySize=auto;html=1;exitX=0.75;exitY=0;exitDx=0;exitDy=0;entryX=0;entryY=0;entryDx=0;entryDy=45;entryPerimeter=0;fillColor=#fff2cc;strokeColor=#d6b656;" edge="1" parent="1" source="Umydz6lpazIZqTObDspl-103" target="Umydz6lpazIZqTObDspl-121">
          <mxGeometry relative="1" as="geometry" />
        </mxCell>
        <mxCell id="Umydz6lpazIZqTObDspl-103" value="request" style="swimlane;fontStyle=0;childLayout=stackLayout;horizontal=1;startSize=26;fillColor=none;horizontalStack=0;resizeParent=1;resizeParentMax=0;resizeLast=0;collapsible=1;marginBottom=0;html=1;" vertex="1" parent="1">
          <mxGeometry x="50" y="970" width="230" height="60" as="geometry" />
        </mxCell>
        <mxCell id="Umydz6lpazIZqTObDspl-104" value="recoverType{email, myId, secredWord}&lt;br&gt;" style="text;strokeColor=#d79b00;fillColor=#ffe6cc;align=left;verticalAlign=top;spacingLeft=4;spacingRight=4;overflow=hidden;rotatable=0;points=[[0,0.5],[1,0.5]];portConstraint=eastwest;whiteSpace=wrap;html=1;" vertex="1" parent="Umydz6lpazIZqTObDspl-103">
          <mxGeometry y="26" width="230" height="34" as="geometry" />
        </mxCell>
        <mxCell id="Umydz6lpazIZqTObDspl-105" value="PasswordController" style="swimlane;fontStyle=0;childLayout=stackLayout;horizontal=1;startSize=26;horizontalStack=0;resizeParent=1;resizeParentMax=0;resizeLast=0;collapsible=1;marginBottom=0;align=center;fontSize=14;" vertex="1" parent="1">
          <mxGeometry x="216" y="796" width="224" height="56" as="geometry">
            <mxRectangle x="50" y="220" width="60" height="30" as="alternateBounds" />
          </mxGeometry>
        </mxCell>
        <mxCell id="Umydz6lpazIZqTObDspl-106" value="/api/v1/password/forgot/verify" style="text;strokeColor=#d79b00;fillColor=#ffe6cc;spacingLeft=4;spacingRight=4;overflow=hidden;rotatable=0;points=[[0,0.5],[1,0.5]];portConstraint=eastwest;fontSize=12;" vertex="1" parent="Umydz6lpazIZqTObDspl-105">
          <mxGeometry y="26" width="224" height="30" as="geometry" />
        </mxCell>
        <mxCell id="Umydz6lpazIZqTObDspl-107" value="answer:{code or answer}" style="text;strokeColor=#d79b00;fillColor=#ffe6cc;align=left;verticalAlign=top;spacingLeft=4;spacingRight=4;overflow=hidden;rotatable=0;points=[[0,0.5],[1,0.5]];portConstraint=eastwest;whiteSpace=wrap;html=1;" vertex="1" parent="1">
          <mxGeometry x="50" y="1022" width="230" height="28" as="geometry" />
        </mxCell>
        <mxCell id="Umydz6lpazIZqTObDspl-108" value="&lt;span style=&quot;font-size: 14px;&quot;&gt;PasswordController&lt;/span&gt;" style="swimlane;fontStyle=0;childLayout=stackLayout;horizontal=1;startSize=26;fillColor=none;horizontalStack=0;resizeParent=1;resizeParentMax=0;resizeLast=0;collapsible=1;marginBottom=0;html=1;" vertex="1" parent="1">
          <mxGeometry x="280" y="1180" width="200" height="70" as="geometry" />
        </mxCell>
        <mxCell id="Umydz6lpazIZqTObDspl-109" value="&lt;span style=&quot;&quot;&gt;/api/v1/password/new&lt;/span&gt;" style="text;strokeColor=#d79b00;fillColor=#ffe6cc;align=left;verticalAlign=top;spacingLeft=4;spacingRight=4;overflow=hidden;rotatable=0;points=[[0,0.5],[1,0.5]];portConstraint=eastwest;whiteSpace=wrap;html=1;" vertex="1" parent="Umydz6lpazIZqTObDspl-108">
          <mxGeometry y="26" width="200" height="44" as="geometry" />
        </mxCell>
        <mxCell id="Umydz6lpazIZqTObDspl-110" value="" style="strokeWidth=2;html=1;shape=mxgraph.flowchart.annotation_2;align=left;labelPosition=right;pointerEvents=1;direction=south;" vertex="1" parent="1">
          <mxGeometry x="210" y="1250" width="300" height="118" as="geometry" />
        </mxCell>
        <mxCell id="Umydz6lpazIZqTObDspl-111" style="edgeStyle=orthogonalEdgeStyle;rounded=0;orthogonalLoop=1;jettySize=auto;html=1;exitX=0.75;exitY=0;exitDx=0;exitDy=0;entryX=0;entryY=0;entryDx=0;entryDy=45;entryPerimeter=0;fillColor=#fff2cc;strokeColor=#d6b656;" edge="1" parent="1" source="Umydz6lpazIZqTObDspl-112" target="Umydz6lpazIZqTObDspl-122">
          <mxGeometry relative="1" as="geometry" />
        </mxCell>
        <mxCell id="Umydz6lpazIZqTObDspl-112" value="request" style="swimlane;fontStyle=0;childLayout=stackLayout;horizontal=1;startSize=26;fillColor=none;horizontalStack=0;resizeParent=1;resizeParentMax=0;resizeLast=0;collapsible=1;marginBottom=0;html=1;" vertex="1" parent="1">
          <mxGeometry x="90" y="1368" width="230" height="60" as="geometry" />
        </mxCell>
        <mxCell id="Umydz6lpazIZqTObDspl-113" value="password: &quot;asdasd&quot;" style="text;strokeColor=#d79b00;fillColor=#ffe6cc;align=left;verticalAlign=top;spacingLeft=4;spacingRight=4;overflow=hidden;rotatable=0;points=[[0,0.5],[1,0.5]];portConstraint=eastwest;whiteSpace=wrap;html=1;" vertex="1" parent="Umydz6lpazIZqTObDspl-112">
          <mxGeometry y="26" width="230" height="34" as="geometry" />
        </mxCell>
        <mxCell id="Umydz6lpazIZqTObDspl-114" value="repeatPassword: &quot;asdasd&quot;" style="text;strokeColor=#d79b00;fillColor=#ffe6cc;align=left;verticalAlign=top;spacingLeft=4;spacingRight=4;overflow=hidden;rotatable=0;points=[[0,0.5],[1,0.5]];portConstraint=eastwest;whiteSpace=wrap;html=1;" vertex="1" parent="1">
          <mxGeometry x="90" y="1420" width="230" height="28" as="geometry" />
        </mxCell>
        <mxCell id="Umydz6lpazIZqTObDspl-115" value="responce" style="swimlane;fontStyle=0;childLayout=stackLayout;horizontal=1;startSize=26;fillColor=none;horizontalStack=0;resizeParent=1;resizeParentMax=0;resizeLast=0;collapsible=1;marginBottom=0;html=1;" vertex="1" parent="1">
          <mxGeometry x="410" y="1368" width="220" height="70" as="geometry" />
        </mxCell>
        <mxCell id="Umydz6lpazIZqTObDspl-116" value="success: true, false" style="text;strokeColor=#d79b00;fillColor=#ffe6cc;align=left;verticalAlign=top;spacingLeft=4;spacingRight=4;overflow=hidden;rotatable=0;points=[[0,0.5],[1,0.5]];portConstraint=eastwest;whiteSpace=wrap;html=1;" vertex="1" parent="Umydz6lpazIZqTObDspl-115">
          <mxGeometry y="26" width="220" height="44" as="geometry" />
        </mxCell>
        <mxCell id="Umydz6lpazIZqTObDspl-117" value="email" style="text;html=1;align=center;verticalAlign=middle;resizable=0;points=[];autosize=1;strokeColor=none;fillColor=none;" vertex="1" parent="1">
          <mxGeometry x="65" y="425" width="50" height="30" as="geometry" />
        </mxCell>
        <mxCell id="Umydz6lpazIZqTObDspl-118" value="myId&lt;span style=&quot;color: rgba(0, 0, 0, 0); font-family: monospace; font-size: 0px; text-align: start;&quot;&gt;%3CmxGraphModel%3E%3Croot%3E%3CmxCell%20id%3D%220%22%2F%3E%3CmxCell%20id%3D%221%22%20parent%3D%220%22%2F%3E%3CmxCell%20id%3D%222%22%20value%3D%22email%22%20style%3D%22text%3Bhtml%3D1%3Balign%3Dcenter%3BverticalAlign%3Dmiddle%3Bresizable%3D0%3Bpoints%3D%5B%5D%3Bautosize%3D1%3BstrokeColor%3Dnone%3BfillColor%3Dnone%3B%22%20vertex%3D%221%22%20parent%3D%221%22%3E%3CmxGeometry%20x%3D%2265%22%20y%3D%22425%22%20width%3D%2250%22%20height%3D%2230%22%20as%3D%22geometry%22%2F%3E%3C%2FmxCell%3E%3C%2Froot%3E%3C%2FmxGraphModel%3E&lt;/span&gt;" style="text;html=1;align=center;verticalAlign=middle;resizable=0;points=[];autosize=1;strokeColor=none;fillColor=none;" vertex="1" parent="1">
          <mxGeometry x="300" y="425" width="50" height="30" as="geometry" />
        </mxCell>
        <mxCell id="Umydz6lpazIZqTObDspl-119" value="secretWord" style="text;html=1;align=center;verticalAlign=middle;resizable=0;points=[];autosize=1;strokeColor=none;fillColor=none;" vertex="1" parent="1">
          <mxGeometry x="505" y="425" width="80" height="30" as="geometry" />
        </mxCell>
        <mxCell id="Umydz6lpazIZqTObDspl-120" value="&lt;span style=&quot;background-color: rgb(255, 255, 255);&quot;&gt;We will send an inspection&lt;/span&gt;" style="shape=callout;whiteSpace=wrap;html=1;perimeter=calloutPerimeter;labelBackgroundColor=#2A262B;" vertex="1" parent="1">
          <mxGeometry x="620" y="602" width="180" height="120" as="geometry" />
        </mxCell>
        <mxCell id="Umydz6lpazIZqTObDspl-121" value="&lt;span style=&quot;background-color: rgb(255, 255, 255);&quot;&gt;We will check!&lt;/span&gt;" style="shape=callout;whiteSpace=wrap;html=1;perimeter=calloutPerimeter;labelBackgroundColor=#2A262B;" vertex="1" parent="1">
          <mxGeometry x="630" y="830" width="180" height="120" as="geometry" />
        </mxCell>
        <mxCell id="Umydz6lpazIZqTObDspl-122" value="&lt;span style=&quot;background-color: rgb(255, 255, 255);&quot;&gt;set new password&lt;/span&gt;" style="shape=callout;whiteSpace=wrap;html=1;perimeter=calloutPerimeter;labelBackgroundColor=#2A262B;" vertex="1" parent="1">
          <mxGeometry x="640" y="1220" width="180" height="120" as="geometry" />
        </mxCell>
        <mxCell id="Umydz6lpazIZqTObDspl-123" value="token: &quot;asjdlajsdlajsdlkajsd&quot;" style="text;strokeColor=#d79b00;fillColor=#ffe6cc;align=left;verticalAlign=top;spacingLeft=4;spacingRight=4;overflow=hidden;rotatable=0;points=[[0,0.5],[1,0.5]];portConstraint=eastwest;whiteSpace=wrap;html=1;" vertex="1" parent="1">
          <mxGeometry x="90" y="1448" width="230" height="28" as="geometry" />
        </mxCell>
      </root>
    </mxGraphModel>
  </diagram>
</mxfile>
